<?xml version="1.0" encoding="UTF-8" standalone="no"?>
<svg
   viewBox="-80 -80 220 180"
   version="1.1"
   id="svg3"
   sodipodi:docname="PC.svg"
   inkscape:version="1.3 (0e150ed6c4, 2023-07-21)"
   xmlns:inkscape="http://www.inkscape.org/namespaces/inkscape"
   xmlns:sodipodi="http://sodipodi.sourceforge.net/DTD/sodipodi-0.dtd"
   xmlns="http://www.w3.org/2000/svg"
   xmlns:svg="http://www.w3.org/2000/svg">
  <defs
     id="defs3" />
  <sodipodi:namedview
     showgrid="true"
     id="namedview1"
     pagecolor="#ffffff"
     bordercolor="#999999"
     borderopacity="1"
     inkscape:showpageshadow="2"
     inkscape:pageopacity="0"
     inkscape:pagecheckerboard="0"
     inkscape:deskcolor="#d1d1d1"
     inkscape:zoom="2.9448854"
     inkscape:cx="110.02126"
     inkscape:cy="83.364874"
     inkscape:window-width="1920"
     inkscape:window-height="1057"
     inkscape:window-x="-8"
     inkscape:window-y="-8"
     inkscape:window-maximized="1"
     inkscape:current-layer="svg3">
    <inkscape:grid
       type="xygrid"
       empspacing="4"
       spacingx="5"
       spacingy="5"
       id="grid1"
       visible="true"
       originx="0"
       originy="0"
       units="px" />
  </sodipodi:namedview>
  <g
     id="g1"
     transform="translate(-40)">
    <path
       style="fill:#000000;stroke:#000000;stroke-width:6;stroke-linecap:square;stroke-dasharray:none"
       d="m -7.5,-25 -5,10"
       id="path2"
       sodipodi:nodetypes="cc" />
    <path
       style="fill:none;stroke:#000000;stroke-width:6;stroke-linecap:square"
       d="M -17,-20 H 0"
       id="path4"
       sodipodi:nodetypes="cc" />
    <circle
       fill="#0000b2"
       id="pin:in"
       cx="-20"
       cy="-20"
       r="3"
       inkscape:label="pin:in" />
    <text
       fill="#808080"
       font-size="18px"
       x="-7.2399945"
       y="-18.348816"
       id="text1"
       inkscape:label="in"
       style="font-size:5.33333px;fill:#ffffff">in</text>
  </g>
  <g
     id="g2"
     transform="translate(-40)">
    <path
       style="fill:none;stroke:#000000;stroke-width:6;stroke-linecap:square"
       d="M -17,20 H 0"
       id="path11"
       sodipodi:nodetypes="cc" />
    <circle
       fill="#0000b2"
       id="pin:time"
       cx="-20"
       cy="20"
       r="3"
       inkscape:label="pin:time" />
    <text
       fill="#808080"
       font-size="18px"
       x="-14.023988"
       y="21.817627"
       id="text2"
       inkscape:label="time"
       style="font-size:5.33333px;fill:#ffffff">time</text>
    <path
       style="fill:none;stroke:#000000;stroke-width:6;stroke-linecap:square;stroke-dasharray:none"
       d="M 2,10 15,20 2,30"
       id="path1"
       sodipodi:nodetypes="ccc" />
  </g>
  <g
     id="g3"
     transform="translate(20,-7.76405e-5)">
    <path
       style="fill:#000000;stroke:#000000;stroke-width:6;stroke-linecap:square;stroke-dasharray:none"
       d="m 72.5,15 -5,10"
       id="path6"
       sodipodi:nodetypes="cc"
       transform="translate(0,-20)" />
    <path
       style="fill:none;stroke:#000000;stroke-width:6;stroke-linecap:square"
       d="M 77,0 H 60"
       id="path13"
       sodipodi:nodetypes="cc" />
    <circle
       fill="#b20000"
       id="pin:out"
       cx="80"
       cy="0"
       r="3" />
    <text
       fill="#808080"
       font-size="18px"
       text-anchor="end"
       x="71.154663"
       y="1.5929132"
       id="text3"
       inkscape:label="out"
       style="font-size:5.33333px;fill:#ffffff">out</text>
  </g>
  <g
     id="g6"
     transform="rotate(90,0,-40)">
    <path
       style="fill:none;stroke:#000000;stroke-width:6;stroke-linecap:square"
       d="M -17,-20 H 0"
       id="path5"
       sodipodi:nodetypes="cc" />
    <circle
       fill="#0000b2"
       id="pin:load"
       cx="-20"
       cy="-20"
       r="3"
       inkscape:label="pin:load" />
    <text
       fill="#808080"
       font-size="18px"
       x="3"
       y="21.905333"
       id="text6"
       inkscape:label="load"
       style="font-size:5.33333px;fill:#ffffff"
       transform="scale(-1)">load</text>
  </g>
  <g
     id="g8"
     transform="rotate(90,40,0)">
    <path
       style="fill:none;stroke:#000000;stroke-width:6;stroke-linecap:square"
       d="M -17,-20 H 0"
       id="path8"
       sodipodi:nodetypes="cc" />
    <circle
       fill="#0000b2"
       id="pin:inc"
       cx="-20"
       cy="-20"
       r="3"
       inkscape:label="pin:inc" />
    <text
       fill="#808080"
       font-size="18px"
       x="2.5466676"
       y="21.979246"
       id="text8"
       inkscape:label="inc"
       style="font-size:5.33333px;fill:#ffffff"
       transform="scale(-1)">inc</text>
  </g>
  <g
     id="g7"
     transform="rotate(90,20,-20)">
    <path
       style="fill:none;stroke:#000000;stroke-width:6;stroke-linecap:square"
       d="M -17,-20 H 0"
       id="path7"
       sodipodi:nodetypes="cc" />
    <circle
       fill="#0000b2"
       id="pin:reset"
       cx="-20"
       cy="-20"
       r="3"
       inkscape:label="pin:reset" />
    <text
       fill="#808080"
       font-size="18px"
       x="2.5466676"
       y="21.979246"
       id="text7"
       inkscape:label="reset"
       style="font-size:5.33333px;fill:#ffffff"
       transform="scale(-1)">reset</text>
  </g>
  <path
     style="fill:none;stroke:#000000;stroke-width:6;stroke-linecap:square"
     d="M -40,-40 H 80 V 40 H -40 Z"
     id="path3"
     sodipodi:nodetypes="ccccc"
     inkscape:label="path3" />
  <path
     style="fill:none;stroke:#000000;stroke-linecap:square;stroke-width:6;stroke-dasharray:none"
     d="M -10,-20 H 50 V 20 H -10 Z"
     id="path9" />
  <path
     style="fill:none;stroke:#000000;stroke-width:6;stroke-linecap:square;stroke-dasharray:none"
     d="M 20,-20 V 20"
     id="path10" />
  <text
     xml:space="preserve"
     style="font-size:21.6735px;line-height:1;font-family:sans-serif;-inkscape-font-specification:sans-serif;text-align:center;text-anchor:middle;fill:#000000;stroke:#000000;stroke-width:1.16108;stroke-linecap:square;stroke-dasharray:none"
     x="5.9130292"
     y="7.7482681"
     id="text10"
     transform="scale(0.84559024,1.1826059)"><tspan
       sodipodi:role="line"
       id="tspan10"
       x="5.9130292"
       y="7.7482681"
       style="stroke-width:1.16108">0</tspan></text>
  <path
     id="path17"
     style="font-size:21.9482px;line-height:1;font-family:sans-serif;-inkscape-font-specification:sans-serif;text-align:center;text-anchor:middle;fill:#000000;stroke:#000000;stroke-width:1.17579;stroke-linecap:square;stroke-dasharray:none"
     d="M 41.950981 5.4843619 L 37.713887 8.7769302 L 38.725065 10.071194 L 40.393157 8.7102658 C 40.671167 8.4615198 40.904429 8.2566064 41.094647 8.0956531 C 41.299496 7.9346998 41.519793 7.7379177 41.753907 7.5038038 C 41.724642 7.9135031 41.702847 8.3086933 41.688215 8.6891283 C 41.673583 9.0695634 41.664754 9.5737157 41.664754 10.202897 L 41.664754 16.649827 L 43.553381 16.649827 L 43.553381 5.4843619 L 41.950981 5.4843619 z "
     transform="scale(0.83249134,1.2012137)" />
  <path
     id="text15"
     style="font-size:21.6735px;line-height:1;font-family:sans-serif;-inkscape-font-specification:sans-serif;text-align:center;text-anchor:middle;display:inline;fill:#000000;stroke:#000000;stroke-width:1.16108;stroke-linecap:square;stroke-dasharray:none"
     d="M 46.444999 -16.911805 L 44.532503 -16.911805 C 44.635303 -16.1751 44.689568 -15.33771 44.689568 -14.386595 C 44.689568 -12.248145 44.435366 -10.650243 43.929651 -9.5954673 C 43.438386 -8.5551404 42.616419 -8.0347588 41.4605 -8.0347588 C 40.290132 -8.0347588 39.457206 -8.5621615 38.96594 -9.6169374 C 38.489124 -10.671713 38.252219 -12.262594 38.252219 -14.386595 C 38.252219 -15.337749 38.303112 -16.175078 38.400045 -16.911805 L 36.494479 -16.911805 C 36.395128 -16.142242 36.344343 -15.303024 36.344343 -14.386595 C 36.344343 -11.88692 36.756482 -9.9280554 37.580074 -8.5120548 C 38.418115 -7.1105032 39.712172 -6.4096401 41.4605 -6.4096401 C 42.688663 -6.4096401 43.677216 -6.7284768 44.428563 -7.3642322 C 45.19436 -7.9999875 45.751757 -8.9094166 46.098532 -10.094233 C 46.445308 -11.27905 46.618232 -12.710513 46.618232 -14.386595 C 46.618232 -15.304452 46.558622 -16.144161 46.444999 -16.911805 z "
     transform="scale(0.84559024,1.1826059)" />
</svg>
