<?xml version="1.0" encoding="UTF-8" standalone="no"?>
<svg
   viewBox="-80 -80 720 1000"
   version="1.1"
   id="svg3"
   sodipodi:docname="RAM64.svg"
   inkscape:version="1.3 (0e150ed6c4, 2023-07-21)"
   width="720"
   height="1000"
   xmlns:inkscape="http://www.inkscape.org/namespaces/inkscape"
   xmlns:sodipodi="http://sodipodi.sourceforge.net/DTD/sodipodi-0.dtd"
   xmlns="http://www.w3.org/2000/svg"
   xmlns:svg="http://www.w3.org/2000/svg">
  <defs
     id="defs3" />
  <sodipodi:namedview
     showgrid="true"
     id="namedview1"
     pagecolor="#ffffff"
     bordercolor="#999999"
     borderopacity="1"
     inkscape:showpageshadow="2"
     inkscape:pageopacity="0"
     inkscape:pagecheckerboard="0"
     inkscape:deskcolor="#d1d1d1"
     inkscape:zoom="0.32"
     inkscape:cx="371.875"
     inkscape:cy="414.0625"
     inkscape:window-width="1920"
     inkscape:window-height="1057"
     inkscape:window-x="-8"
     inkscape:window-y="-8"
     inkscape:window-maximized="1"
     inkscape:current-layer="svg3">
    <inkscape:grid
       type="xygrid"
       empspacing="4"
       spacingx="5"
       spacingy="5"
       id="grid1"
       visible="true"
       originx="0"
       originy="0"
       units="px" />
  </sodipodi:namedview>
  <g
     id="g24"
     transform="translate(120,219.99992)">
    <path
       style="fill:#000000;stroke:#000000;stroke-width:6;stroke-linecap:square;stroke-dasharray:none"
       d="m -7.5,-25 -5,10"
       id="path23"
       sodipodi:nodetypes="cc" />
    <path
       style="fill:none;stroke:#000000;stroke-width:6;stroke-linecap:square"
       d="M -17,-20 H 0"
       id="path24"
       sodipodi:nodetypes="cc" />
    <circle
       fill="#0000b2"
       id="pin:out"
       cx="-20"
       cy="-20"
       r="3"
       inkscape:label="pin:out"
       style="fill:#b20000;fill-opacity:1" />
    <text
       fill="#808080"
       font-size="18px"
       text-anchor="end"
       x="133.272"
       y="58.52066"
       id="text3"
       inkscape:label="out"
       style="font-size:5.33333px;fill:#ffffff"
       transform="translate(-136.15466,-76.59283)">out</text>
  </g>
  <g
     id="g1"
     transform="translate(120,180)">
    <path
       style="fill:#000000;stroke:#000000;stroke-width:6;stroke-linecap:square;stroke-dasharray:none"
       d="m -7.5,-25 -5,10"
       id="path2"
       sodipodi:nodetypes="cc" />
    <path
       style="fill:none;stroke:#000000;stroke-width:6;stroke-linecap:square"
       d="M -17,-20 H 0"
       id="path4"
       sodipodi:nodetypes="cc" />
    <circle
       fill="#0000b2"
       id="pin:in"
       cx="-20"
       cy="-20"
       r="3"
       inkscape:label="pin:in" />
    <text
       fill="#808080"
       font-size="18px"
       x="-7.2399945"
       y="-18.348816"
       id="text1"
       inkscape:label="in"
       style="font-size:5.33333px;fill:#ffffff">in</text>
  </g>
  <g
     id="g8"
     transform="translate(120,139.99992)">
    <path
       style="fill:#000000;stroke:#000000;stroke-width:6;stroke-linecap:square;stroke-dasharray:none"
       d="m -7.5,-25 -5,10"
       id="path7"
       sodipodi:nodetypes="cc" />
    <path
       style="fill:none;stroke:#000000;stroke-width:6;stroke-linecap:square"
       d="M -17,-20 H 0"
       id="path8"
       sodipodi:nodetypes="cc" />
    <circle
       fill="#0000b2"
       id="pin:address"
       cx="-20"
       cy="-20"
       r="3"
       inkscape:label="pin:addr" />
    <text
       fill="#808080"
       font-size="18px"
       x="-14.674662"
       y="-18.011703"
       id="text8"
       inkscape:label="addr"
       style="font-size:5.33333px;fill:#ffffff">addr</text>
  </g>
  <g
     id="g2"
     transform="translate(120,720)">
    <path
       style="fill:none;stroke:#000000;stroke-width:6;stroke-linecap:square"
       d="M -17,20 H 0"
       id="path11"
       sodipodi:nodetypes="cc" />
    <circle
       fill="#0000b2"
       id="pin:time"
       cx="-20"
       cy="20"
       r="3"
       inkscape:label="pin:time" />
    <text
       fill="#808080"
       font-size="18px"
       x="-14.023988"
       y="21.817627"
       id="text2"
       inkscape:label="time"
       style="font-size:5.33333px;fill:#ffffff">time</text>
    <path
       style="fill:none;stroke:#000000;stroke-width:6;stroke-linecap:square;stroke-dasharray:none"
       d="M 2,10 15,20 2,30"
       id="path1"
       sodipodi:nodetypes="ccc" />
  </g>
  <g
     id="g6"
     transform="translate(120,720)">
    <path
       style="fill:none;stroke:#000000;stroke-width:6;stroke-linecap:square"
       d="M -17,-20 H 0"
       id="path5"
       sodipodi:nodetypes="cc" />
    <circle
       fill="#0000b2"
       id="pin:load"
       cx="-20"
       cy="-20"
       r="3"
       inkscape:label="pin:load" />
    <text
       fill="#808080"
       font-size="18px"
       x="-13.421327"
       y="-17.979248"
       id="text6"
       inkscape:label="load"
       style="font-size:5.33333px;fill:#ffffff">load</text>
  </g>
  <path
     style="fill:none;stroke:#000000;stroke-width:6;stroke-linecap:square"
     d="m 320,80 v 15 c 0,0 -10,5 -10,15 0,10 10,15 10,15 v 15 H 200 v -15 c 0,0 10,-5 10,-15 0,-10 -10,-15 -10,-15 V 80 Z"
     id="path3"
     sodipodi:nodetypes="ccsccccsccc"
     inkscape:label="path3" />
  <path
     style="fill:none;stroke:#000000;stroke-width:6;stroke-linecap:square"
     d="m 320,160 v 15 c 0,0 -10,5 -10,15 0,10 10,15 10,15 v 15 H 200 v -15 c 0,0 10,-5 10,-15 0,-10 -10,-15 -10,-15 v -15 z"
     id="path9"
     sodipodi:nodetypes="ccsccccsccc"
     inkscape:label="path3" />
  <path
     style="fill:none;stroke:#000000;stroke-width:6;stroke-linecap:square"
     d="m 320,240 v 15 c 0,0 -10,5 -10,15 0,10 10,15 10,15 v 15 H 200 v -15 c 0,0 10,-5 10,-15 0,-10 -10,-15 -10,-15 v -15 z"
     id="path15"
     sodipodi:nodetypes="ccsccccsccc"
     inkscape:label="path3" />
  <path
     style="fill:none;stroke:#000000;stroke-width:6;stroke-linecap:square"
     d="m 320,320 v 15 c 0,0 -10,5 -10,15 0,10 10,15 10,15 v 15 H 200 v -15 c 0,0 10,-5 10,-15 0,-10 -10,-15 -10,-15 v -15 z"
     id="path16"
     sodipodi:nodetypes="ccsccccsccc"
     inkscape:label="path3" />
  <path
     style="fill:none;stroke:#000000;stroke-width:6;stroke-linecap:square"
     d="m 320,480 v 15 c 0,0 -10,5 -10,15 0,10 10,15 10,15 v 15 H 200 v -15 c 0,0 10,-5 10,-15 0,-10 -10,-15 -10,-15 v -15 z"
     id="path17"
     sodipodi:nodetypes="ccsccccsccc"
     inkscape:label="path3" />
  <path
     style="fill:none;stroke:#000000;stroke-width:6;stroke-linecap:square"
     d="m 320,560 v 15 c 0,0 -10,5 -10,15 0,10 10,15 10,15 v 15 H 200 v -15 c 0,0 10,-5 10,-15 0,-10 -10,-15 -10,-15 v -15 z"
     id="path18"
     sodipodi:nodetypes="ccsccccsccc"
     inkscape:label="path3" />
  <path
     style="fill:none;stroke:#000000;stroke-width:6;stroke-linecap:square"
     d="m 320,640 v 15 c 0,0 -10,5 -10,15 0,10 10,15 10,15 v 15 H 200 v -15 c 0,0 10,-5 10,-15 0,-10 -10,-15 -10,-15 v -15 z"
     id="path19"
     sodipodi:nodetypes="ccsccccsccc"
     inkscape:label="path3" />
  <path
     style="fill:none;stroke:#000000;stroke-width:6;stroke-linecap:square"
     d="m 320,720 v 15 c 0,0 -10,5 -10,15 0,10 10,15 10,15 v 15 H 200 v -15 c 0,0 10,-5 10,-15 0,-10 -10,-15 -10,-15 v -15 z"
     id="path20"
     sodipodi:nodetypes="ccsccccsccc"
     inkscape:label="path3" />
  <path
     style="fill:none;stroke:#000000;stroke-width:6;stroke-linecap:square"
     d="m 120,40 h 35 c 0,0 0,20 17.5,20 C 190,60 190,40 190,40 h 35 c 0,0 0,20 17.5,20 C 260,60 260,40 260,40 H 400 V 820 H 260 c 0,0 0,-20 -20,-20 -15,0 -15,20 -15,20 h -35 c 0,0 0,-20 -20,-20 -15,0 -15,20 -15,20 H 120 V 655 h 40 v -10 h -40 z"
     id="path21"
     sodipodi:nodetypes="ccsccsccccsccsccccccc" />
  <text
     xml:space="preserve"
     style="font-size:18.4268px;line-height:1;font-family:sans-serif;-inkscape-font-specification:sans-serif;text-align:center;writing-mode:lr-tb;text-anchor:middle;fill:#000000;fill-opacity:1;stroke:#000000;stroke-width:0.987149;stroke-linecap:square;stroke-dasharray:none"
     x="383.01617"
     y="771.50256"
     id="text24"
     transform="scale(0.96520402,1.0360504)"><tspan
       sodipodi:role="line"
       id="tspan24"
       x="383.01617"
       y="771.50256"
       style="stroke-width:0.987149">64</tspan></text>
</svg>
